<svg width="914" height="616" viewBox="0 0 914 616" fill="none" xmlns="http://www.w3.org/2000/svg">
<path fill-rule="evenodd" clip-rule="evenodd" d="M914 443.626V442.603C911.477 443.148 908.949 443.693 906.416 444.239L904.632 444.624C815.783 463.784 721.296 484.268 645.169 516.84C523.448 568.922 464.982 604.364 450.935 615.61L451.247 616H452.053C466.83 604.428 525.234 569.245 645.562 517.76C721.583 485.232 815.969 464.766 904.843 445.601L906.756 445.189C909.175 444.667 911.59 444.146 914 443.626ZM415.536 616C430.313 604.428 488.717 569.245 609.045 517.76C685.066 485.232 779.452 464.766 868.326 445.601L870.239 445.189C885.02 442.002 899.644 438.848 914 435.679V434.654C899.539 437.848 884.801 441.026 869.898 444.239L868.115 444.624C779.266 463.784 684.779 484.268 608.652 516.84C486.931 568.922 428.465 604.364 414.417 615.61L414.73 616H415.536ZM368.585 616C383.362 604.428 441.767 569.245 562.095 517.76C638.116 485.232 732.501 464.766 821.375 445.601L823.289 445.189C854.578 438.442 885.167 431.846 914 424.929V423.9C885.085 430.84 854.382 437.461 822.948 444.239L821.165 444.624C732.315 463.784 637.828 484.268 561.702 516.84C439.98 568.922 381.515 604.364 367.467 615.61L367.779 616H368.585ZM324.243 616C339.02 604.428 397.424 569.245 517.753 517.76C593.773 485.232 688.159 464.766 777.033 445.601L778.946 445.189C826.871 434.854 873.151 424.875 914 413.555V412.517C873.106 423.861 826.713 433.866 778.606 444.239L776.822 444.624C687.973 463.784 593.486 484.268 517.359 516.84C395.638 568.922 337.173 604.364 323.125 615.61L323.438 616H324.243ZM272.076 616C286.853 604.428 345.257 569.245 465.585 517.76C541.606 485.232 635.992 464.766 724.866 445.601L726.779 445.189C796.573 430.139 862.878 415.841 914 397.06V395.995C862.906 414.812 796.489 429.134 726.439 444.239L724.655 444.624C635.805 463.784 541.318 484.268 465.192 516.84C343.471 568.922 285.005 604.364 270.958 615.61L271.27 616H272.076ZM230.342 616C245.119 604.428 303.523 569.245 423.852 517.76C499.873 485.232 594.258 464.766 683.132 445.601L685.045 445.189C773.162 426.188 855.717 408.386 909.178 381.246C910.8 380.423 912.407 379.581 914 378.722V377.585C912.259 378.53 910.5 379.453 908.726 380.354C855.381 407.435 772.923 425.216 684.705 444.239L682.921 444.624C594.071 463.784 499.585 484.268 423.458 516.84C301.737 568.922 243.271 604.364 229.224 615.61L229.536 616H230.342ZM186 616C200.777 604.428 259.181 569.245 379.509 517.76C455.53 485.232 549.916 464.766 638.79 445.601L640.703 445.189C728.819 426.188 811.375 408.386 864.836 381.246C882.816 372.118 899.038 360.767 914 347.235V345.885C898.91 359.632 882.544 371.134 864.383 380.354C811.038 407.435 728.581 425.216 640.362 444.239L638.579 444.624C549.729 463.784 455.243 484.268 379.116 516.84C257.395 568.922 198.929 604.364 184.881 615.61L185.194 616H186ZM136.44 616C151.218 604.428 209.622 569.245 329.951 517.76C405.971 485.232 500.357 464.766 589.231 445.601L591.144 445.189C679.26 426.188 761.816 408.386 815.277 381.246C854.96 361.1 886.077 330.124 914 288.778V286.986C885.927 328.856 854.706 360.108 814.825 380.354C761.479 407.435 679.022 425.216 590.804 444.239L589.02 444.624C500.17 463.784 405.684 484.268 329.557 516.84C207.835 568.922 149.37 604.364 135.322 615.61L135.635 616H136.44ZM97.3154 616C112.092 604.428 170.497 569.245 290.825 517.76C366.846 485.232 461.231 464.766 550.105 445.601L552.019 445.189C640.135 426.188 722.69 408.386 776.152 381.246C830.06 353.879 868.158 306.525 903.92 240.338C907.296 234.088 910.653 227.67 914 221.084V218.872C910.361 226.068 906.713 233.065 903.04 239.862C867.318 305.975 829.343 353.121 775.699 380.354C722.354 407.435 639.897 425.216 551.678 444.239L549.895 444.624C461.045 463.784 366.558 484.268 290.432 516.84C168.71 568.922 110.245 604.364 96.1973 615.61L96.5098 616H97.3154ZM60.7979 616C75.5752 604.428 133.979 569.245 254.308 517.76C330.329 485.232 424.714 464.766 513.588 445.601L515.501 445.189C603.618 426.188 686.174 408.386 739.635 381.246C793.543 353.879 831.641 306.525 867.403 240.338C883 211.47 898.162 179.003 914 143.03V140.547C897.839 177.328 882.408 210.462 866.523 239.862C830.801 305.975 792.826 353.121 739.182 380.354C685.837 407.435 603.38 425.216 515.161 444.239L513.377 444.624C424.528 463.784 330.041 484.268 253.915 516.84C132.193 568.922 73.7275 604.364 59.6797 615.61L59.9922 616H60.7979ZM26.8892 616C41.6665 604.428 100.071 569.245 220.399 517.76C296.42 485.232 390.806 464.766 479.68 445.601L481.593 445.189C569.709 426.188 652.265 408.386 705.726 381.246C759.634 353.879 797.732 306.525 833.494 240.338C859.791 191.668 884.847 132.767 914 64.0848V61.5258C913.981 61.5699 913.962 61.6141 913.944 61.6581C884.421 131.214 859.151 190.748 832.614 239.862C796.893 305.975 758.917 353.121 705.273 380.354C651.928 407.435 569.471 425.216 481.252 444.239L479.469 444.624C390.619 463.784 296.132 484.268 220.006 516.84C98.2842 568.922 39.8188 604.364 25.771 615.61L26.0835 616H26.8892ZM0.805664 616C15.583 604.428 73.9873 569.245 194.315 517.76C270.336 485.232 364.722 464.766 453.596 445.601L455.509 445.189C543.625 426.188 626.181 408.386 679.642 381.246C733.551 353.879 771.648 306.525 807.41 240.338C833.972 191.178 859.268 131.581 888.798 62.0081L888.858 61.8672C896.889 42.9474 905.232 23.29 914 2.90466V0.374451C904.886 21.5471 896.232 41.9339 887.916 61.5259L887.86 61.658C858.337 131.213 833.067 190.748 806.53 239.862C770.809 305.975 732.833 353.121 679.189 380.354C625.844 407.435 543.387 425.216 455.168 444.239L453.385 444.624C364.535 463.784 270.049 484.268 193.922 516.84C73.083 568.544 14.5864 603.849 0 615.361V616H0.805664Z" fill="#55CEA7"/>
</svg>
