<svg width="876" height="212" viewBox="0 0 876 212" fill="none" xmlns="http://www.w3.org/2000/svg">
<path fill-rule="evenodd" clip-rule="evenodd" d="M0 68.6692V69.6741C39.5906 65.7288 84.6962 62.2683 131.483 58.6792L133.219 58.5461C218.06 52.0374 308.249 45.0811 380.907 34.021C497.123 16.3306 552.923 4.29492 566.316 0.480957L566.179 0H564.29C548.282 4.25977 492.447 16.0308 380.757 33.0322C308.143 44.0857 217.995 51.0393 133.143 57.5491L131.349 57.6865C84.6356 61.27 39.5748 64.7268 0 68.6692ZM521.951 0H523.84L523.977 0.480957C510.585 4.29492 454.785 16.3306 338.569 34.021C265.911 45.0811 175.722 52.0374 90.881 58.5461L89.1449 58.6792C58.3359 61.0427 28.2561 63.3501 0 65.7771V64.7734C28.2249 62.3496 58.2595 60.0457 89.0101 57.6865L90.8046 57.5491C175.656 51.0393 265.805 44.0857 338.418 33.0322C450.109 16.0308 505.943 4.25977 521.951 0ZM477.123 0H479.011L479.148 0.480957C465.756 4.29492 409.956 16.3306 293.74 34.021C221.082 45.0811 130.893 52.0374 46.0522 58.5461L44.3162 58.6792C29.3296 59.8289 14.5155 60.9653 0 62.1086V61.1055C14.4745 59.9653 29.2434 58.8325 44.1812 57.6865L45.9757 57.5491C130.827 51.0393 220.976 44.0857 293.589 33.0322C405.28 16.0308 461.114 4.25977 477.123 0ZM442.256 0H444.144L444.281 0.480957C430.889 4.29492 375.089 16.3306 258.873 34.021C186.215 45.0811 96.026 52.0374 11.1853 58.5461L9.44925 58.6792C6.29144 58.9214 3.1413 59.1631 0 59.4043V58.4014C3.09668 58.1636 6.20181 57.9253 9.31427 57.6865L11.1088 57.5491C95.9604 51.0393 186.109 44.0857 258.722 33.0322C370.413 16.0308 426.247 4.25977 442.256 0ZM614.1 0C598.092 4.25977 542.257 16.0308 430.567 33.0322C357.953 44.0857 267.805 51.0393 182.953 57.5491L181.159 57.6865C113.394 62.885 49.1072 67.8169 0 74.3508V75.3594C49.0916 68.821 113.423 63.8857 181.293 58.6792L183.029 58.5461C267.87 52.0374 358.059 45.0811 430.717 34.021C546.933 16.3306 602.733 4.29492 616.125 0.480957L615.989 0H614.1ZM653.948 0C637.939 4.25977 582.105 16.0308 470.414 33.0322C397.801 44.0857 307.652 51.0393 222.801 57.5491L221.007 57.6865C136.846 64.1428 58.0494 70.1877 7.03418 79.4014C4.65775 79.8306 2.31345 80.2742 0 80.7324V81.7517C2.37094 81.281 4.77448 80.8254 7.21191 80.3853C58.1729 71.1814 136.925 65.1401 221.124 58.6807L221.141 58.6792L222.877 58.5461C307.718 52.0374 397.907 45.0811 470.565 34.021C586.781 16.3306 642.581 4.29492 655.973 0.480957L655.836 0H653.948ZM696.286 0C680.278 4.25977 624.443 16.0308 512.753 33.0322C440.139 44.0857 349.991 51.0393 265.139 57.5491L263.345 57.6865C179.185 64.1428 100.388 70.1877 49.3726 79.4014C31.2309 82.6777 14.9611 86.8 0 91.7515V92.8037C15.0045 87.8206 31.329 83.6763 49.5503 80.3853C100.511 71.1814 179.263 65.1401 263.463 58.6807L263.479 58.6792L265.216 58.5461C350.056 52.0374 440.245 45.0811 512.903 34.021C629.12 16.3306 684.919 4.29492 698.312 0.480957L698.175 0H696.286ZM743.605 0C727.597 4.25977 671.763 16.0308 560.072 33.0322C487.459 44.0857 397.31 51.0393 312.459 57.5491L310.664 57.6865C226.504 64.1428 147.707 70.1877 96.692 79.4014C57.6684 86.4492 27.3058 97.4109 0 112.119V113.254C27.3501 98.4583 57.7351 87.4531 96.8697 80.3853C147.831 71.1814 226.583 65.1401 310.782 58.6807L310.799 58.6792L312.535 58.5461C397.376 52.0374 487.565 45.0811 560.223 34.021C676.439 16.3306 732.239 4.29492 745.631 0.480957L745.494 0H743.605ZM780.963 0C764.955 4.25977 709.12 16.0308 597.43 33.0322C524.816 44.0857 434.668 51.0393 349.816 57.5491L348.022 57.6865C263.861 64.1428 185.065 70.1877 134.049 79.4014C76.5327 89.7891 37.8309 108.679 0 135.535V136.763C37.9346 109.743 76.592 90.7947 134.227 80.3853C185.188 71.1814 263.94 65.1401 348.14 58.6807L348.156 58.6792L349.892 58.5461C434.733 52.0374 524.922 45.0811 597.58 34.021C713.796 16.3306 769.596 4.29492 782.989 0.480957L782.852 0H780.963ZM815.83 0C799.822 4.25977 743.987 16.0308 632.297 33.0322C559.683 44.0857 469.535 51.0393 384.683 57.5491L382.889 57.6865C298.728 64.1428 219.932 70.1877 168.916 79.4014C93.8642 92.9561 50.8482 120.988 0 162.303V163.595C51.075 122.038 93.9584 93.9553 169.094 80.3853C220.055 71.1814 298.807 65.1401 383.006 58.6807L383.023 58.6792L384.759 58.5461C469.6 52.0374 559.789 45.0811 632.447 34.021C748.663 16.3306 804.463 4.29492 817.856 0.480957L817.719 0H815.83ZM848.206 0C832.198 4.25977 776.363 16.0308 664.673 33.0322C592.059 44.0857 501.911 51.0393 417.059 57.5491L415.265 57.6865C331.105 64.1428 252.308 70.1877 201.293 79.4014C111.669 95.5876 67.7292 132.418 1.58267 187.861L1.53799 187.899C1.02667 188.327 0.514008 188.757 0 189.188V190.494C0.748199 189.867 1.4935 189.242 2.23596 188.62C68.3804 133.182 112.121 96.5225 201.47 80.3853C252.431 71.1814 331.183 65.1401 415.383 58.6807L415.399 58.6792L417.136 58.5461C501.977 52.0374 592.166 45.0811 664.823 34.021C781.04 16.3306 836.84 4.29492 850.232 0.480957L850.095 0H848.206ZM873.111 0C857.103 4.25977 801.268 16.0308 689.578 33.0322C616.964 44.0857 526.816 51.0393 441.964 57.5491L440.17 57.6865C356.01 64.1428 277.213 70.1877 226.198 79.4014C136.574 95.5876 92.634 132.418 26.4874 187.862L26.4848 187.864C18.0632 194.923 9.28165 202.283 0 209.941V211.238C9.52737 203.383 18.5242 195.842 27.1408 188.62C93.2853 133.182 137.026 96.5225 226.375 80.3853C277.336 71.1814 356.088 65.1401 440.288 58.6807L440.304 58.6792L442.041 58.5461C526.882 52.0374 617.07 45.0811 689.728 34.021C805.945 16.3306 861.745 4.29492 875.137 0.480957L875 0H873.111Z" fill="#55CEA7"/>
</svg>
