<svg width="2371" height="512" viewBox="0 0 2371 512" fill="none" xmlns="http://www.w3.org/2000/svg">
<path fill-rule="evenodd" clip-rule="evenodd" d="M0 369.737V368.736C16.6042 369.32 33.2551 369.906 49.946 370.492L59.2664 370.82C508.088 386.595 985.077 403.451 1369.32 430.248C1984.09 473.122 2279.13 502.282 2349.81 511.504L2349.74 512H2345.82C2268.74 502.266 1973.4 473.379 1369.25 431.245C985.028 404.45 508.058 387.594 59.2312 371.819L49.8799 371.49C33.2112 370.905 16.5825 370.32 0 369.737ZM2371 495.531C2215.09 480.961 1951.25 458.971 1553.69 431.245C1169.47 404.45 692.499 387.594 243.672 371.819L234.321 371.49C155.087 368.706 76.7576 365.953 0 363.183V362.182C76.7781 364.953 155.13 367.707 234.388 370.492L243.708 370.82C692.529 386.595 1169.52 403.451 1553.76 430.248C1951.24 457.968 2215.06 479.955 2371 494.527L2371 495.531ZM2371 474.874C2222.69 462.676 2031.2 448.009 1790.83 431.245C1406.61 404.45 929.638 387.594 480.811 371.819L471.459 371.49C308.549 365.765 149.464 360.173 0 354.292V353.291C149.478 359.173 308.585 364.765 471.523 370.492L471.525 370.492L480.846 370.82C929.668 386.595 1406.66 403.451 1790.9 430.248C2031.23 447.008 2222.7 461.673 2371 473.87L2371 474.874ZM2371 457.169C2266.69 449.217 2148.28 440.555 2014.8 431.245C1630.57 404.45 1153.6 387.594 704.775 371.819L695.422 371.49C448.027 362.795 209.451 354.41 0 344.847V343.846C209.46 353.41 448.058 361.796 695.49 370.492L704.81 370.82C1153.63 386.595 1630.62 403.451 2014.86 430.248C2148.32 439.555 2266.7 448.216 2371 456.166L2371 457.169ZM2371 437.778C2340.94 435.638 2310.04 433.46 2278.28 431.245C1894.06 404.45 1417.09 387.594 968.262 371.819L958.911 371.49L958.908 371.49C600.061 358.878 259.768 346.918 0 331.069V330.067C259.762 345.917 600.078 357.878 958.977 370.492L968.297 370.82C1417.12 386.595 1894.11 403.451 2278.35 430.248C2310.08 432.461 2340.96 434.637 2371 436.776L2371 437.778ZM2371 423.487C2009.62 401.086 1582.94 386.015 1179.05 371.819L1169.7 371.49C724.394 355.839 307.662 341.193 37.9214 318.873C25.1064 317.813 12.4683 316.716 0 315.583V314.579C12.4949 315.715 25.1604 316.814 38.0037 317.877C307.721 340.194 724.438 354.84 1169.77 370.492L1179.09 370.82C1582.95 385.015 2009.62 400.085 2371 422.485V423.487ZM2371 410.874C2063.82 395.092 1726.13 383.176 1403.02 371.819L1393.67 371.49L1393.66 371.49C948.358 355.839 531.626 341.193 261.885 318.873C165.613 310.907 79.325 300.878 0 288.824V287.813C79.3442 299.874 165.657 309.908 261.968 317.877C531.685 340.194 948.401 354.84 1393.73 370.492L1393.73 370.492L1403.05 370.82C1726.14 382.176 2063.82 394.092 2371 409.873V410.874ZM2371 399.058C2135.82 388.803 1890.64 380.16 1653.33 371.819L1643.98 371.49C1198.67 355.839 781.939 341.193 512.198 318.873C305.369 301.76 144.625 275.122 0 239.346V238.316C144.643 274.112 305.395 300.758 512.281 317.877C781.999 340.194 1198.72 354.84 1644.04 370.492L1653.36 370.82C1890.66 379.16 2135.83 387.803 2371 398.057L2371 399.058ZM2371 390.869C2198.04 384.032 2022.44 377.847 1850.94 371.819L1841.59 371.49C1396.29 355.839 979.554 341.193 709.814 318.873C405.134 293.663 200.459 247.786 0 182.472V181.42C200.507 246.772 405.153 292.661 709.896 317.877C979.614 340.194 1396.33 354.84 1841.66 370.492L1850.98 370.82C2022.46 376.847 2198.04 383.032 2371 389.868L2371 390.869ZM2371 383.829C2258.63 379.671 2146.15 375.712 2035.39 371.819L2026.03 371.49L2026.03 371.49C1580.73 355.839 1164 341.193 894.255 318.873C496.903 285.995 269.644 217.966 0 117.514V116.447C269.758 216.955 496.937 284.994 894.337 317.877C1164.05 340.194 1580.77 354.84 2026.1 370.492L2035.42 370.82C2146.17 374.712 2258.64 378.671 2371 382.828L2371 383.829ZM2371 377.623C2315.95 375.662 2261.09 373.733 2206.65 371.819L2197.3 371.49C1751.99 355.839 1335.26 341.193 1065.52 318.873C592.077 279.699 360.108 190.622 10.2007 56.2564L10.1934 56.2538C6.80664 54.9533 3.40894 53.6485 0 52.3396V51.2681C3.53369 52.6249 7.05518 53.9771 10.5647 55.3248C360.457 189.684 592.306 278.714 1065.6 317.877C1335.32 340.194 1752.04 354.84 2197.37 370.492L2206.69 370.82C2261.12 372.733 2315.96 374.662 2371 376.622L2371 377.623ZM2371 372.965C2360.12 372.583 2349.25 372.201 2338.4 371.819L2329.05 371.49L2329.04 371.49C1883.74 355.839 1467.01 341.193 1197.27 318.873C723.821 279.699 491.852 190.622 141.944 56.2563L141.938 56.2544C96.8413 38.9368 49.7849 20.867 0 2.0548V0.985779C49.9233 19.8489 97.1008 37.9651 142.308 55.3246C492.2 189.684 724.05 278.714 1197.35 317.877C1467.07 340.194 1883.78 354.84 2329.11 370.492L2329.11 370.492L2338.43 370.82C2349.27 371.201 2360.13 371.582 2371 371.965V372.965Z" fill="#55CEA7"/>
</svg>
