<svg width="1216" height="528" viewBox="0 0 1216 528" fill="none" xmlns="http://www.w3.org/2000/svg">
<path fill-rule="evenodd" clip-rule="evenodd" d="M0 381.234V380.231C8.53125 380.835 17.0869 381.44 25.6631 382.046L30.4219 382.382C260.603 398.655 505.247 416.044 702.327 443.688C1017.62 487.915 1168.95 517.997 1205.23 527.516L1205.1 528H1203.1C1163.76 517.991 1012.32 488.181 702.188 444.678C505.149 417.04 260.542 399.653 30.3516 383.38L25.5361 383.04C17.0024 382.436 8.48975 381.834 0 381.234ZM1216 511.002C1136.06 495.974 1000.73 473.287 796.781 444.678C599.742 417.04 355.135 399.653 124.944 383.38L120.13 383.04L120.123 383.039C79.5049 380.168 39.3501 377.329 0 374.473V373.47C39.3911 376.33 79.5908 379.171 120.256 382.046L125.015 382.382C355.196 398.655 599.84 416.044 796.92 443.688C1000.71 472.274 1136 494.951 1216 509.985V511.002ZM1216 489.692C1139.94 477.108 1041.71 461.975 918.401 444.678C721.362 417.04 476.755 399.653 246.564 383.38L241.75 383.04L241.742 383.039C158.213 377.134 76.6416 371.368 0 365.302V364.299C76.6733 370.368 158.29 376.137 241.876 382.046L246.635 382.382C476.815 398.655 721.46 416.044 918.54 443.688C1041.76 460.973 1139.94 476.097 1216 488.678V489.692ZM1216 471.428C1162.49 463.223 1101.75 454.285 1033.26 444.678C836.225 417.04 591.618 399.653 361.427 383.38L356.613 383.04L356.605 383.039C229.752 374.072 107.413 365.423 0 355.56V354.555C107.43 364.422 229.815 373.073 356.739 382.046L361.498 382.382C591.679 398.655 836.323 416.044 1033.4 443.688C1101.82 453.286 1162.52 462.217 1216 470.417V471.428ZM1216 451.425C1200.57 449.214 1184.7 446.965 1168.4 444.678C971.358 417.04 726.751 399.653 496.561 383.38L491.746 383.04L491.739 383.039C307.736 370.032 133.23 357.696 0 341.348V340.341C133.217 356.692 307.769 369.031 491.872 382.046L496.631 382.382C726.812 398.655 971.456 416.044 1168.54 443.688C1184.79 445.968 1200.61 448.211 1216 450.415V451.425ZM1216 436.682C1030.67 413.572 811.829 398.025 604.667 383.38L599.853 383.04L599.845 383.039C371.481 366.896 157.744 351.786 19.3877 328.76C12.8364 327.67 6.375 326.542 0 325.377V324.36C6.42773 325.536 12.9438 326.674 19.5518 327.773C157.863 350.792 371.569 365.899 599.979 382.046L604.737 382.382C811.843 397.024 1030.66 412.568 1216 435.674V436.682ZM1216 423.67C1058.46 407.389 885.258 395.096 719.53 383.38L714.715 383.04C486.349 366.896 272.608 351.786 134.251 328.76C84.9033 320.547 40.668 310.208 0 297.784V296.74C40.708 309.191 84.9937 319.548 134.415 327.773C272.726 350.792 486.433 365.899 714.842 382.046L719.601 382.382C885.284 394.095 1058.46 406.387 1216 422.665V423.67ZM1216 411.48C1095.38 400.901 969.628 391.985 847.906 383.38L843.092 383.04L843.088 383.039C614.723 366.896 400.984 351.786 262.627 328.76C156.589 311.112 74.1577 283.648 0 246.771V245.655C74.1978 282.608 156.649 310.109 262.791 327.773C401.103 350.792 614.809 365.899 843.218 382.046L847.977 382.382C969.664 390.985 1095.39 399.9 1216 410.477V411.48ZM1216 403.033C1127.29 395.98 1037.22 389.599 949.256 383.38L944.442 383.04L944.437 383.039C716.072 366.896 502.333 351.786 363.977 328.76C207.757 302.761 102.773 255.455 0 188.132V186.935C102.869 254.4 207.81 301.756 364.141 327.773C502.452 350.792 716.158 365.899 944.567 382.046L949.327 382.382C1037.26 388.599 1127.3 394.978 1216 402.03V403.033ZM1216 395.771C1158.36 391.481 1100.67 387.397 1043.85 383.38L1039.03 383.04L1039.02 383.039C810.663 366.896 596.926 351.786 458.57 328.76C254.81 294.849 138.214 224.69 0 121.144V119.893C138.426 223.648 254.895 293.849 458.734 327.773C597.046 350.792 810.752 365.899 1039.16 382.046L1043.92 382.382C1100.71 386.397 1158.38 390.48 1216 394.768V395.771ZM1216 389.369C1187.76 387.345 1159.62 385.354 1131.69 383.38L1126.87 383.04L1126.87 383.039C898.501 366.896 684.763 351.786 546.407 328.76C303.502 288.334 184.468 196.396 5.01367 57.7904L4.99609 57.777C3.33594 56.4948 1.67041 55.2085 0 53.9182V52.6533C1.87598 54.102 3.74512 55.5457 5.60791 56.9844L5.63574 57.006C185.084 195.604 303.925 287.391 546.571 327.773C684.882 350.792 898.588 365.899 1127 382.046L1131.76 382.382C1159.66 384.355 1187.78 386.344 1216 388.366V389.369ZM1216 384.564C1210.41 384.169 1204.83 383.774 1199.25 383.38L1194.44 383.04C966.071 366.896 752.331 351.786 613.973 328.76C371.068 288.334 252.034 196.396 72.5801 57.7902L72.5625 57.7763C49.5029 39.9659 25.4458 21.3849 0 2.0437V0.787781C25.6523 20.2808 49.8892 39.0001 73.1113 56.9357L73.2021 57.006C252.651 195.604 371.492 287.391 614.137 327.773C752.449 350.792 966.155 365.899 1194.56 382.046L1199.32 382.382C1204.87 382.775 1210.43 383.168 1216 383.562V384.564Z" fill="#55CEA7"/>
</svg>
