<svg width="1216" height="528" viewBox="0 0 1216 528" fill="none" xmlns="http://www.w3.org/2000/svg">
<path fill-rule="evenodd" clip-rule="evenodd" d="M1216 381.234V380.231C1207.47 380.835 1198.91 381.44 1190.34 382.046L1185.58 382.382C955.397 398.655 710.753 416.044 513.673 443.688C198.379 487.915 47.0469 517.997 10.7744 527.516L10.9014 528H12.9009C52.2383 517.991 203.682 488.181 513.812 444.678C710.851 417.04 955.458 399.653 1185.65 383.38L1190.46 383.04C1199 382.436 1207.51 381.834 1216 381.234ZM0 511.002C79.9419 495.974 215.265 473.287 419.219 444.678C616.258 417.04 860.865 399.653 1091.06 383.38L1095.87 383.04L1095.88 383.039C1136.5 380.168 1176.65 377.329 1216 374.473V373.47C1176.61 376.33 1136.41 379.171 1095.74 382.046L1090.98 382.382C860.804 398.655 616.16 416.044 419.08 443.688C215.291 472.274 79.999 494.951 0 509.985V511.002ZM0 489.692C76.064 477.108 174.288 461.975 297.599 444.678C494.638 417.04 739.245 399.653 969.436 383.38L974.25 383.04L974.258 383.039C1057.79 377.134 1139.36 371.368 1216 365.302V364.299C1139.33 370.368 1057.71 376.137 974.124 382.046L969.365 382.382C739.185 398.655 494.54 416.044 297.46 443.688C174.236 460.973 76.0557 476.097 0 488.678V489.692ZM0 471.428C53.5088 463.223 114.253 454.285 182.736 444.678C379.775 417.04 624.382 399.653 854.573 383.38L859.387 383.04L859.395 383.039C986.248 374.072 1108.59 365.423 1216 355.56V354.555C1108.57 364.422 986.185 373.073 859.261 382.046L854.502 382.382C624.321 398.655 379.677 416.044 182.597 443.688C114.177 453.286 53.4775 462.217 0 470.417V471.428ZM0 451.425C15.4336 449.214 31.2988 446.965 47.603 444.678C244.642 417.04 489.249 399.653 719.439 383.38L724.254 383.04L724.261 383.039C908.264 370.032 1082.77 357.696 1216 341.348V340.341C1082.78 356.692 908.231 369.031 724.128 382.046L719.369 382.382C489.188 398.655 244.544 416.044 47.4639 443.688C31.209 445.968 15.3901 448.211 0 450.415V451.425ZM0 436.682C185.333 413.572 404.171 398.025 611.333 383.38L616.147 383.04L616.155 383.039C844.519 366.896 1058.26 351.786 1196.61 328.76C1203.16 327.67 1209.62 326.542 1216 325.377V324.36C1209.57 325.536 1203.06 326.674 1196.45 327.773C1058.14 350.792 844.431 365.899 616.021 382.046L611.263 382.382C404.157 397.024 185.343 412.568 0 435.674V436.682ZM0 423.67C157.542 407.389 330.742 395.096 496.47 383.38L501.285 383.04C729.651 366.896 943.392 351.786 1081.75 328.76C1131.1 320.547 1175.33 310.208 1216 297.784V296.74C1175.29 309.191 1131.01 319.548 1081.58 327.773C943.274 350.792 729.567 365.899 501.158 382.046L496.399 382.382C330.716 394.095 157.539 406.387 0 422.665V423.67ZM0 411.48C120.619 400.901 246.372 391.985 368.094 383.38L372.908 383.04L372.912 383.039C601.277 366.896 815.016 351.786 953.373 328.76C1059.41 311.112 1141.84 283.648 1216 246.771V245.655C1141.8 282.608 1059.35 310.109 953.209 327.773C814.897 350.792 601.191 365.899 372.782 382.046L368.023 382.382C246.336 390.985 120.607 399.9 0 410.477V411.48ZM0 403.033C88.7139 395.98 178.781 389.599 266.744 383.38L271.558 383.04L271.563 383.039C499.928 366.896 713.667 351.786 852.023 328.76C1008.24 302.761 1113.23 255.455 1216 188.132V186.935C1113.13 254.4 1008.19 301.756 851.859 327.773C713.548 350.792 499.842 365.899 271.433 382.046L266.673 382.382C178.74 388.599 88.6963 394.978 0 402.03V403.033ZM0 395.771C57.6401 391.481 115.334 387.397 172.15 383.38L176.966 383.04L176.976 383.039C405.337 366.896 619.074 351.786 757.43 328.76C961.19 294.849 1077.79 224.69 1216 121.144V119.893C1077.57 223.648 961.105 293.849 757.266 327.773C618.954 350.792 405.248 365.899 176.839 382.046L172.08 382.382C115.29 386.397 57.6196 390.48 0 394.768V395.771ZM0 389.369C28.2432 387.345 56.3848 385.354 84.314 383.38L89.1289 383.04L89.1348 383.039C317.499 366.896 531.237 351.786 669.593 328.76C912.498 288.334 1031.53 196.396 1210.99 57.7904L1211 57.777C1212.66 56.4948 1214.33 55.2085 1216 53.9182V52.6533C1214.12 54.102 1212.25 55.5457 1210.39 56.9844L1210.36 57.006C1030.92 195.604 912.075 287.391 669.429 327.773C531.118 350.792 317.412 365.899 89.0029 382.046L84.2437 382.382C56.3384 384.355 28.2202 386.344 0 388.366V389.369ZM0 384.564C5.59033 384.169 11.1733 383.774 16.7476 383.38L21.5635 383.04C249.929 366.896 463.669 351.786 602.027 328.76C844.932 288.334 963.966 196.396 1143.42 57.7902L1143.44 57.7763C1166.5 39.9659 1190.55 21.3849 1216 2.0437V0.787781C1190.35 20.2808 1166.11 39.0001 1142.89 56.9357L1142.8 57.006C963.349 195.604 844.508 287.391 601.863 327.773C463.551 350.792 249.845 365.899 21.4365 382.046L16.6768 382.382C11.126 382.775 5.56689 383.168 0 383.562V384.564Z" fill="#55CEA7"/>
</svg>
