<svg width="348" height="272" viewBox="0 0 348 272" fill="none" xmlns="http://www.w3.org/2000/svg">
<path fill-rule="evenodd" clip-rule="evenodd" d="M348 195.192V194.16C347.792 194.213 347.584 194.266 347.377 194.318L346.737 194.48C312.682 203.115 276.42 212.357 247.197 227.06C200.527 250.54 178.077 266.534 172.657 271.636L173 272H173.738C179.696 266.627 202.067 250.885 247.646 227.953C276.754 213.309 312.902 204.091 346.983 195.45L347.76 195.253L347.761 195.252C347.841 195.232 347.92 195.212 348 195.192ZM159.738 272C165.696 266.627 188.067 250.885 233.646 227.953C262.754 213.309 298.902 204.091 332.983 195.45L333.76 195.253L333.761 195.252C338.558 194.036 343.313 192.83 348 191.622V190.589C343.192 191.829 338.309 193.068 333.377 194.318L332.737 194.48C298.682 203.115 262.42 212.357 233.197 227.06C186.527 250.54 164.077 266.534 158.657 271.636L159 272H159.738ZM141.738 272C147.696 266.627 170.067 250.885 215.646 227.953C244.754 213.309 280.902 204.091 314.983 195.45L315.76 195.253L315.761 195.252C326.836 192.444 337.69 189.692 348 186.829V185.79C337.593 188.685 326.61 191.47 315.377 194.318L314.737 194.48C280.682 203.115 244.42 212.357 215.197 227.06C168.527 250.54 146.077 266.534 140.657 271.636L141 272H141.738ZM124.738 272C130.696 266.627 153.067 250.885 198.646 227.953C227.754 213.309 263.902 204.091 297.983 195.45L298.76 195.253L298.761 195.252C316.133 190.848 332.96 186.581 348 181.806V180.757C332.901 185.565 315.946 189.864 298.377 194.318L297.737 194.48C263.682 203.115 227.42 212.357 198.197 227.06C151.527 250.54 129.077 266.534 123.657 271.636L124 272H124.738ZM104.738 272C110.696 266.627 133.067 250.885 178.646 227.953C207.754 213.309 243.902 204.091 277.983 195.45L278.76 195.253L278.761 195.252C304.345 188.766 328.745 182.579 348 174.624V173.543C328.761 181.543 304.234 187.762 278.377 194.318L277.737 194.48C243.682 203.115 207.42 212.357 178.197 227.06C131.527 250.54 109.077 266.534 103.657 271.636L104 272H104.738ZM88.7382 272C94.6961 266.627 117.067 250.885 162.646 227.953C191.754 213.309 227.902 204.091 261.983 195.45L262.76 195.253L262.761 195.252C296.11 186.797 327.447 178.851 348 166.835V165.675C327.583 177.785 296.112 185.765 262.377 194.318L261.737 194.48C227.682 203.115 191.42 212.357 162.197 227.06C115.527 250.54 93.0773 266.534 87.6573 271.636L88 272H88.7382ZM71.7382 272C77.6961 266.627 100.067 250.885 145.646 227.953C174.754 213.309 210.902 204.091 244.983 195.45L245.76 195.253L245.761 195.252C279.508 186.696 311.195 178.661 331.732 166.403C337.605 162.897 342.989 158.668 348 153.729V152.317C342.841 157.507 337.292 161.919 331.219 165.544C310.809 177.728 279.233 185.734 245.377 194.318L244.737 194.48C210.682 203.115 174.42 212.357 145.197 227.06C98.5266 250.54 76.0773 266.534 70.6573 271.636L71 272H71.7382ZM52.7382 272C58.6961 266.627 81.0667 250.885 126.646 227.953C155.754 213.309 191.902 204.091 225.983 195.45L226.76 195.253L226.761 195.252C260.508 186.696 292.195 178.661 312.732 166.403C326.742 158.04 337.966 145.56 348 129.147V127.216C337.803 144.235 326.448 157.051 312.219 165.544C291.809 177.728 260.233 185.734 226.377 194.318L225.737 194.48C191.682 203.115 155.42 212.357 126.197 227.06C79.5266 250.54 57.0773 266.534 51.6573 271.636L52 272H52.7382ZM37.7382 272C43.6961 266.627 66.0667 250.885 111.646 227.953C140.754 213.309 176.902 204.091 210.983 195.45L211.76 195.253L211.761 195.252C245.508 186.696 277.195 178.661 297.732 166.403C318.481 154.017 333.117 132.603 346.832 102.755C347.222 101.907 347.611 101.051 348 100.189V97.7401C347.31 99.2946 346.618 100.827 345.924 102.338C332.234 132.13 317.704 153.316 297.219 165.544C276.809 177.728 245.233 185.734 211.377 194.318L210.737 194.48C176.682 203.115 140.42 212.357 111.197 227.06C64.5266 250.54 42.0773 266.534 36.6573 271.636L37 272H37.7382ZM23.7382 272C29.6961 266.627 52.0667 250.885 97.6464 227.953C126.754 213.309 162.902 204.091 196.983 195.45L197.76 195.253L197.761 195.252C231.508 186.696 263.195 178.661 283.732 166.403C304.481 154.017 319.117 132.603 332.832 102.755C337.922 91.6797 342.89 79.4286 348 66.0303V63.2159C342.567 77.5588 337.314 90.6077 331.924 102.338C318.234 132.13 303.704 153.316 283.219 165.544C262.809 177.728 231.233 185.734 197.377 194.318L196.737 194.48C162.682 203.115 126.42 212.357 97.1969 227.06C50.5266 250.54 28.0773 266.534 22.6573 271.636L23 272H23.7382ZM10.7382 272C16.6961 266.627 39.0667 250.885 84.6464 227.953C113.754 213.309 149.902 204.091 183.983 195.45L184.76 195.253L184.761 195.252C218.508 186.696 250.195 178.661 270.732 166.403C291.481 154.017 306.117 132.603 319.832 102.755C329.095 82.5975 337.957 58.5466 348 30.771V27.8282C337.569 56.7019 328.46 81.5837 318.924 102.338C305.234 132.13 290.704 153.316 270.219 165.544C249.809 177.728 218.233 185.734 184.377 194.318L183.737 194.48C149.682 203.115 113.42 212.357 84.1969 227.06C37.5266 250.54 15.0773 266.534 9.65729 271.636L10 272H10.7382ZM0.73822 272C6.69604 266.627 29.0667 250.885 74.6464 227.953C103.754 213.309 139.902 204.091 173.983 195.45L174.76 195.253L174.762 195.252C208.509 186.696 240.196 178.661 260.732 166.403C281.481 154.017 296.117 132.603 309.832 102.755C320.019 80.5857 329.722 53.7072 341.044 22.3438L341.046 22.3364C343.295 16.1074 345.607 9.70154 348 3.12048V0.196167C345.269 7.69397 342.644 14.9652 340.102 22.0078L340.092 22.0338L340.091 22.0367C328.774 53.3867 319.092 80.2085 308.924 102.338C295.234 132.13 280.704 153.316 260.219 165.544C239.809 177.728 208.233 185.734 174.376 194.318L173.737 194.48C139.682 203.115 103.42 212.357 74.1969 227.06C28.4524 250.074 5.97748 265.897 0 271.32V272H0.73822Z" fill="#55CEA7"/>
</svg>
