<svg width="922" height="630" viewBox="0 0 922 630" fill="none" xmlns="http://www.w3.org/2000/svg">
<path fill-rule="evenodd" clip-rule="evenodd" d="M469.947 630C455.17 618.428 396.766 583.245 276.437 531.76C200.417 499.232 106.031 478.766 17.157 459.601L15.2437 459.189C10.1423 458.089 5.05954 456.993 0 455.899V454.875C5.17139 455.994 10.3678 457.114 15.5843 458.239L17.3678 458.624C106.217 477.784 200.704 498.268 276.831 530.84C398.552 582.922 457.018 618.364 471.065 629.61L470.753 630H469.947ZM507.27 630H506.464C491.687 618.428 433.283 583.245 312.954 531.76C236.934 499.232 142.548 478.766 53.6741 459.601L51.7608 459.189C34.2252 455.407 16.9097 451.674 0 447.904V446.879C17.0113 450.672 34.4409 454.431 52.1014 458.239L53.8849 458.624C142.735 477.784 237.221 498.268 313.348 530.84C435.069 582.922 493.535 618.364 507.582 629.61L507.27 630ZM554.221 630H553.415C538.638 618.428 480.234 583.245 359.905 531.76C283.884 499.232 189.499 478.766 100.625 459.601L98.7112 459.189C64.5112 451.814 31.1488 444.62 0 436.99V435.96C31.2248 443.613 64.7016 450.832 99.0519 458.239L100.835 458.624C189.685 477.784 284.172 498.268 360.298 530.84C482.02 582.922 540.485 618.364 554.533 629.61L554.221 630ZM598.563 630H597.757C582.98 618.428 524.576 583.245 404.247 531.76C328.226 499.232 233.841 478.766 144.967 459.601L143.053 459.189C91.972 448.174 42.7593 437.562 0 425.3V424.26C42.7957 436.547 92.1218 447.183 143.394 458.239L145.178 458.624C234.027 477.784 328.514 498.268 404.641 530.84C526.362 582.922 584.827 618.364 598.875 629.61L598.563 630ZM650.73 630H649.924C635.147 618.428 576.743 583.245 456.414 531.76C380.394 499.232 286.008 478.766 197.134 459.601L195.221 459.189C121.728 443.341 52.1026 428.327 0 408.034V406.962C52.0576 427.295 121.795 442.333 195.561 458.239L197.345 458.624C286.195 477.784 380.681 498.268 456.808 530.84C578.529 582.922 636.995 618.364 651.042 629.61L650.73 630ZM692.464 630H691.658C676.881 618.428 618.477 583.245 498.148 531.76C422.128 499.232 327.742 478.766 238.868 459.601L236.955 459.189C148.838 440.188 66.2827 422.386 12.8216 395.246C8.44598 393.024 4.17451 390.671 0 388.187V387.023C4.31824 389.608 8.7403 392.052 13.2743 394.354C66.6193 421.435 149.076 439.216 237.295 458.239H237.295L239.079 458.624C327.929 477.784 422.415 498.268 498.542 530.84C620.263 582.922 678.729 618.364 692.776 629.61L692.464 630ZM736.806 630H736.001C721.223 618.428 662.819 583.245 542.491 531.76C466.47 499.232 372.084 478.766 283.21 459.601L281.297 459.189C193.181 440.188 110.625 422.386 57.1638 395.246C35.9309 384.467 17.1507 370.587 0 353.677V352.27C17.2769 369.433 36.1978 383.481 57.6165 394.354C110.962 421.435 193.419 439.216 281.638 458.239L283.421 458.624C372.271 477.784 466.758 498.268 542.884 530.84C664.605 582.922 723.071 618.364 737.119 629.61L736.806 630ZM786.365 630H785.56C770.782 618.428 712.378 583.245 592.049 531.76C516.029 499.232 421.643 478.766 332.769 459.601L330.856 459.189C242.74 440.188 160.184 422.386 106.723 395.246C63.2097 373.156 29.9973 338.044 0 290.518V288.639C30.1606 336.756 63.4671 372.165 107.175 394.354C160.521 421.435 242.978 439.216 331.196 458.239L332.98 458.624C421.83 477.784 516.316 498.268 592.443 530.84C714.164 582.922 772.63 618.364 786.677 629.61L786.365 630ZM825.49 630H824.685C809.908 618.428 751.504 583.245 631.175 531.76C555.154 499.232 460.769 478.766 371.895 459.601L369.981 459.189C281.865 440.188 199.309 422.386 145.848 395.246C91.9399 367.879 53.8418 320.525 18.0802 254.338C12.0093 243.102 6.00443 231.32 0 218.999V216.713C6.29787 229.692 12.5925 242.077 18.96 253.862C54.6814 319.975 92.657 367.121 146.301 394.354C199.646 421.435 282.103 439.216 370.322 458.239L372.105 458.624C460.955 477.784 555.442 498.268 631.568 530.84C753.29 582.922 811.755 618.364 825.803 629.61L825.49 630ZM862.008 630H861.202C846.425 618.428 788.021 583.245 667.692 531.76C591.671 499.232 497.286 478.766 408.412 459.601L406.498 459.189C318.382 440.188 235.826 422.386 182.365 395.246C128.457 367.879 90.3589 320.525 54.5974 254.338C36.394 220.647 18.7849 182.054 0 138.708V136.191C19.1214 180.381 36.9917 219.65 55.4771 253.862C91.1985 319.975 129.174 367.121 182.818 394.354C236.163 421.435 318.62 439.216 406.839 458.239L408.623 458.624C497.472 477.784 591.959 498.268 668.085 530.84C789.807 582.922 848.272 618.364 862.32 629.61L862.008 630ZM895.916 630H895.111C880.334 618.428 821.929 583.245 701.601 531.76C625.58 499.232 531.194 478.766 442.32 459.601L440.407 459.189C352.291 440.188 269.735 422.386 216.274 395.246C162.366 367.879 124.268 320.525 88.5061 254.338C61.9447 205.178 36.6485 145.581 7.11844 76.0084L7.11583 76.0023C4.77148 70.4791 2.40047 64.893 0 59.2443V56.6873C2.7222 63.091 5.40614 69.4144 8.05583 75.657L8.05634 75.6581L8.05647 75.6584C37.5794 145.214 62.8488 204.748 89.3859 253.862C125.107 319.975 163.083 367.121 216.727 394.354C270.072 421.435 352.529 439.216 440.748 458.239L442.531 458.624C531.381 477.784 625.868 498.268 701.994 530.84C823.716 582.922 882.181 618.364 896.229 629.61L895.916 630ZM922 629.361V630H921.194C906.417 618.428 848.013 583.245 727.684 531.76C651.664 499.232 557.278 478.766 468.404 459.601L466.491 459.189C378.375 440.188 295.819 422.386 242.358 395.246C188.449 367.879 150.351 320.525 114.59 254.338C88.0283 205.178 62.7321 145.581 33.2019 76.0081C22.9807 51.927 12.2522 26.6508 0.788391 0.198822L1.24716 0H1.7921C13.2339 26.4038 23.9404 51.6282 34.1393 75.6565L34.14 75.658L34.1401 75.6584C63.6631 145.214 88.9324 204.748 115.47 253.862C151.191 319.975 189.167 367.121 242.81 394.354C296.156 421.435 378.613 439.216 466.831 458.239L468.615 458.624C557.465 477.784 651.951 498.268 728.078 530.84C848.917 582.544 907.414 617.849 922 629.361Z" fill="#55CEA7"/>
</svg>
