<svg width="156" height="306" viewBox="0 0 156 306" fill="none" xmlns="http://www.w3.org/2000/svg">
<path fill-rule="evenodd" clip-rule="evenodd" d="M9.95673 306H8.74524C16.6711 294.455 29.1262 273.998 45.0467 242.354C59.6907 213.246 68.9087 177.098 77.5504 143.017L77.7474 142.24C86.304 108.492 94.3384 76.8047 106.597 56.2679C116.915 38.9838 133.497 25.9417 156 14.14V15.2699C133.82 26.9619 117.572 39.8333 107.456 56.7805C95.2725 77.1911 87.2664 108.766 78.6819 142.623L78.6818 142.623L78.5197 143.263C69.8846 177.318 60.6426 213.58 45.94 242.803C30.2775 273.934 17.9462 294.289 9.95673 306ZM21.3614 306H20.1962C27.0549 294.542 35.4169 279.494 45.0467 260.354C59.6907 231.246 68.9087 195.098 77.5504 161.017L77.7474 160.24C86.304 126.492 94.3384 94.8047 106.597 74.2679C116.915 56.9838 133.497 43.9417 156 32.14V33.27C133.82 44.962 117.572 57.8333 107.456 74.7805C95.2724 95.1911 87.2664 126.766 78.6819 160.623L78.6818 160.623L78.5197 161.263C69.8846 195.318 60.6426 231.58 45.94 260.803C36.4489 279.668 28.1811 294.575 21.3614 306ZM31.1058 306H29.9631C34.5568 297.7 39.5988 288.182 45.0467 277.354C59.6907 248.246 68.9087 212.098 77.5504 178.017L77.7474 177.24C86.304 143.492 94.3384 111.805 106.597 91.2679C116.915 73.9838 133.497 60.9417 156 49.14V50.27C133.82 61.962 117.572 74.8333 107.456 91.7805C95.2725 112.191 87.2665 143.766 78.6821 177.622L78.6818 177.623L78.5197 178.263C69.8846 212.318 60.6426 248.58 45.94 277.803C40.5938 288.429 35.6356 297.8 31.1058 306ZM41.7661 306H40.6409C42.0781 303.216 43.5471 300.334 45.0467 297.354C59.6907 268.246 68.9087 232.098 77.5504 198.017L77.7474 197.24C86.304 163.492 94.3384 131.805 106.597 111.268C116.915 93.9838 133.497 80.9417 156 69.14V70.27C133.82 81.962 117.572 94.8333 107.456 111.78C95.2725 132.191 87.2665 163.766 78.6821 197.622L78.6818 197.623L78.5197 198.263C69.8846 232.318 60.6426 268.58 45.94 297.803C44.5211 300.623 43.1296 303.355 41.7661 306ZM49.6665 306H48.5679C61.21 278.287 69.6227 245.282 77.5504 214.017L77.7474 213.24C86.304 179.492 94.3384 147.805 106.597 127.268C116.915 109.984 133.497 96.9417 156 85.14V86.2699C133.82 97.9619 117.572 110.833 107.456 127.78C95.2725 148.191 87.2665 179.766 78.6821 213.622L78.6818 213.623L78.5197 214.263C70.6379 245.347 62.2505 278.269 49.6665 306ZM56.666 306H55.598C64.5169 282.307 71.1898 256.102 77.5504 231.017L77.7474 230.24C86.304 196.492 94.3384 164.805 106.597 144.268C116.915 126.984 133.497 113.942 156 102.14V103.27C133.82 114.962 117.572 127.833 107.456 144.78C95.2725 165.191 87.2665 196.766 78.6821 230.622L78.6818 230.623L78.5197 231.263C72.196 256.202 65.5468 282.325 56.666 306ZM63.206 306H62.1567C67.9788 287.705 72.8499 268.555 77.5504 250.017L77.7474 249.24C86.304 215.492 94.3384 183.805 106.597 163.268C116.915 145.984 133.497 132.942 156 121.14V122.27C133.82 133.962 117.572 146.833 107.456 163.78C95.2725 184.191 87.2665 215.766 78.6821 249.622L78.6818 249.623L78.5197 250.263C73.8488 268.684 69.0002 287.751 63.206 306ZM67.7272 306H66.6865C70.6006 292.393 74.1209 278.542 77.5504 265.017L77.7474 264.24C86.304 230.492 94.3384 198.805 106.597 178.268C116.915 160.984 133.497 147.942 156 136.14V137.27C133.82 148.962 117.572 161.833 107.456 178.78C95.2725 199.191 87.2665 230.766 78.6821 264.622L78.6818 264.623L78.5197 265.263C75.1156 278.688 71.6172 292.456 67.7272 306ZM71.6056 306H70.57C72.9939 296.973 75.2918 287.924 77.5504 279.017L77.7474 278.24C86.304 244.492 94.3384 212.805 106.597 192.268C116.915 174.984 133.497 161.942 156 150.14V151.27C133.82 162.962 117.572 175.833 107.456 192.78C95.2725 213.191 87.2665 244.766 78.6821 278.622L78.6818 278.623L78.5197 279.263C76.2838 288.081 74.0071 297.047 71.6056 306ZM75.0167 306H73.9839C75.1915 301.316 76.3762 296.647 77.5504 292.017L77.7474 291.24C86.304 257.492 94.3384 225.805 106.597 205.268C116.915 187.984 133.497 174.942 156 163.14V164.27C133.82 175.962 117.572 188.833 107.456 205.78C95.2725 226.191 87.2665 257.766 78.6821 291.622L78.6818 291.623L78.5197 292.263C77.3667 296.81 76.2029 301.396 75.0167 306ZM77.5715 306H76.5397C76.8777 304.67 77.2144 303.342 77.5503 302.017L77.7474 301.24L77.7476 301.239C86.3042 267.492 94.3386 235.805 106.597 215.268C116.915 197.984 133.497 184.942 156 173.14V174.27C133.82 185.962 117.572 198.833 107.456 215.781C95.2723 236.191 87.2662 267.767 78.6818 301.624L78.5197 302.263C78.2045 303.506 77.8885 304.752 77.5715 306ZM156 1.26993C133.82 12.9619 117.572 25.8333 107.456 42.7805C95.2725 63.1911 87.2664 94.7662 78.6819 128.623L78.6818 128.623L78.5197 129.263C69.8846 163.318 60.6426 199.58 45.94 228.803C22.4597 275.473 6.46588 297.923 1.36407 303.343L0.635925 302.657C5.6319 297.35 21.5723 275.012 45.0467 228.354C59.6907 199.246 68.9087 163.098 77.5504 129.017L77.7474 128.24C86.304 94.4924 94.3384 62.8047 106.597 42.2679C116.915 24.9838 133.497 11.9417 156 0.140015V1.26993Z" fill="#55CEA7" fill-opacity="0.87"/>
</svg>
