<svg width="486" height="220" viewBox="0 0 486 220" fill="none" xmlns="http://www.w3.org/2000/svg">
<path fill-rule="evenodd" clip-rule="evenodd" d="M0 218.805C5.32434 207.245 10.3194 196.183 15.0851 185.63C29.2496 154.262 41.3896 127.378 54.1357 105.204C71.3002 75.3438 89.6063 53.9446 115.528 41.5754C141.196 29.3274 180.812 21.2976 223.047 12.7373L223.996 12.5449C243.298 8.63257 263.136 4.60083 282.449 0H286.721C266.112 5.01733 244.832 9.34204 224.195 13.5251L223.371 13.6919L223.367 13.6926C181.034 22.2732 141.514 30.2837 115.959 42.478C90.2989 54.7222 72.1207 75.9229 55.0026 105.703C42.283 127.83 30.1722 154.65 16.0154 186C11.1393 196.798 6.02063 208.134 0.550598 220H0V218.805ZM18.0639 220H17.5133L17.0593 219.791C22.554 207.873 27.6974 196.483 32.5984 185.63C46.7629 154.262 58.903 127.378 71.649 105.204C88.8135 75.3438 107.12 53.9446 133.041 41.5754C158.709 29.3274 198.325 21.2976 240.561 12.7373L241.509 12.5449C260.811 8.63257 280.649 4.60083 299.963 0H304.234C283.625 5.01733 262.346 9.34204 241.708 13.5251L240.884 13.6919L240.88 13.6926C198.548 22.2732 159.027 30.2837 133.472 42.478C107.812 54.7222 89.634 75.9229 72.5159 105.703C59.7963 127.83 47.6855 154.65 33.5287 186C28.6526 196.798 23.5339 208.134 18.0639 220ZM40.5811 220H40.0304L39.5764 219.791C45.0711 207.873 50.2145 196.483 55.1155 185.63C69.28 154.262 81.4201 127.378 94.1661 105.204C111.331 75.3438 129.637 53.9446 155.558 41.5754C181.226 29.3274 220.843 21.2976 263.078 12.7373L264.026 12.5449C283.328 8.63257 303.166 4.60083 322.48 0H326.751C306.142 5.01733 284.863 9.34204 264.225 13.5251L263.401 13.6919L263.398 13.6926C221.065 22.2732 181.544 30.2837 155.989 42.478C130.329 54.7222 112.151 75.9229 95.0331 105.703C82.3135 127.83 70.2026 154.65 56.0458 186C51.1698 196.798 46.051 208.134 40.5811 220ZM61.8472 220H61.2966L60.8425 219.791C66.3373 207.873 71.4807 196.483 76.3818 185.629C90.5463 154.262 102.686 127.378 115.432 105.204C132.597 75.3438 150.903 53.9446 176.824 41.5754C202.492 29.3274 242.109 21.2976 284.344 12.7373L285.292 12.5449C304.595 8.63257 324.432 4.60083 343.746 0H348.017C327.408 5.01733 306.129 9.34204 285.491 13.5251L284.667 13.6921C242.333 22.2727 202.811 30.2834 177.255 42.478C151.595 54.7222 133.417 75.9229 116.299 105.703C103.58 127.83 91.4688 154.65 77.312 186C72.4359 196.798 67.3172 208.134 61.8472 220ZM86.8662 220H86.3156L85.8615 219.791C91.3558 207.874 96.4988 196.485 101.399 185.632L101.401 185.629C115.565 154.262 127.705 127.378 140.451 105.204C157.616 75.3438 175.922 53.9446 201.844 41.5754C227.511 29.3274 267.128 21.2976 309.363 12.7373L310.312 12.5449C329.614 8.63257 349.452 4.60083 368.765 0H373.036C352.427 5.01733 331.148 9.34204 310.51 13.5251L309.686 13.6919L309.683 13.6926C267.35 22.2732 227.829 30.2837 202.274 42.478C176.615 54.7222 158.436 75.9229 141.318 105.703C128.599 127.83 116.488 154.65 102.331 186C97.455 196.798 92.3362 208.134 86.8662 220ZM106.881 220H106.331L105.877 219.791C111.368 207.88 116.509 196.496 121.408 185.648L121.416 185.63C135.58 154.262 147.72 127.378 160.466 105.204C177.631 75.3438 195.937 53.9446 221.859 41.5754C247.526 29.3274 287.143 21.2976 329.378 12.7373L330.327 12.5449C349.629 8.63257 369.467 4.60083 388.78 0H393.052C372.442 5.01733 351.163 9.34204 330.525 13.5251L329.702 13.6919L329.698 13.6926C287.365 22.2732 247.844 30.2837 222.289 42.478C196.63 54.7222 178.452 75.9229 161.333 105.703C148.614 127.83 136.503 154.65 122.346 186C117.47 196.798 112.351 208.134 106.881 220ZM128.148 220H127.597L127.143 219.791C132.638 207.873 137.781 196.483 142.682 185.629L142.684 185.626C156.848 154.26 168.987 127.377 181.733 105.204C198.897 75.3438 217.203 53.9446 243.125 41.5754C268.793 29.3274 308.409 21.2976 350.644 12.7373L351.593 12.5449C370.895 8.63257 390.733 4.60083 410.046 0H414.318C393.709 5.01733 372.429 9.34204 351.792 13.5251L350.968 13.6919L350.964 13.6926C308.631 22.2732 269.11 30.2839 243.556 42.478C217.896 54.7222 199.718 75.9229 182.6 105.703C169.88 127.83 157.77 154.648 143.613 185.998L143.612 186L143.601 186.026C138.728 196.816 133.613 208.143 128.148 220ZM151.916 220H151.365L150.911 219.791C156.403 207.88 161.544 196.495 166.442 185.647L166.45 185.63C180.615 154.262 192.755 127.378 205.501 105.204C222.665 75.3438 240.971 53.9446 266.893 41.5754C292.561 29.3274 332.177 21.2976 374.412 12.7373L375.361 12.5449C394.663 8.63257 414.501 4.60083 433.814 0H438.086C417.477 5.01733 396.197 9.34204 375.56 13.5251L374.736 13.6919L374.732 13.6926C332.399 22.2732 292.878 30.2839 267.324 42.478C241.664 54.7222 223.486 75.9229 206.368 105.703C193.648 127.83 181.537 154.65 167.38 186L167.362 186.04C162.492 196.826 157.379 208.148 151.916 220ZM170.68 220H170.129L169.675 219.791C175.17 207.873 180.313 196.483 185.214 185.629C199.379 154.262 211.519 127.378 224.265 105.204C241.43 75.3438 259.736 53.9446 285.657 41.5754C311.325 29.3274 350.941 21.2976 393.177 12.7373L394.125 12.5449C413.427 8.63257 433.265 4.60083 452.579 0H456.85C436.241 5.01733 414.962 9.34204 394.324 13.5251L393.5 13.6919L393.492 13.6934C351.161 22.2737 311.642 30.2839 286.088 42.478C260.428 54.7222 242.25 75.9229 225.132 105.703C212.412 127.83 200.302 154.65 186.145 186L186.142 186.006C181.267 196.802 176.149 208.136 170.68 220ZM188.193 220H187.643L187.189 219.791C192.683 207.873 197.827 196.483 202.728 185.629L202.729 185.626C216.893 154.26 229.033 127.377 241.778 105.204C258.943 75.3438 277.249 53.9446 303.17 41.5754C328.838 29.3274 368.455 21.2976 410.69 12.7373L411.638 12.5449C430.941 8.63257 450.778 4.60083 470.092 0H474.363C453.754 5.01733 432.475 9.34204 411.837 13.5251L411.013 13.6919L411.005 13.6934C368.674 22.2737 329.155 30.2839 303.601 42.478C277.941 54.7222 259.763 75.9229 242.645 105.703C229.926 127.83 217.815 154.65 203.658 186L203.655 186.006C198.78 196.802 193.662 208.136 188.193 220ZM204.456 220H203.905L203.451 219.791C208.946 207.873 214.089 196.483 218.99 185.629C233.155 154.262 245.295 127.378 258.041 105.204C275.205 75.3438 293.511 53.9446 319.433 41.5754C345.101 29.3274 384.717 21.2976 426.952 12.7373L427.901 12.5449C447.085 8.65649 466.798 4.65015 486 0.0842285V1.1123C466.843 5.66235 447.197 9.6543 428.099 13.5251L427.276 13.6919L427.268 13.6934C384.937 22.2737 345.418 30.2839 319.864 42.478C294.204 54.7222 276.026 75.9229 258.908 105.703C246.188 127.83 234.077 154.65 219.92 186L219.895 186.057C215.026 196.838 209.916 208.155 204.456 220ZM216.965 220H216.414L215.96 219.791C221.455 207.873 226.599 196.483 231.5 185.63C245.664 154.262 257.804 127.378 270.55 105.204C287.715 75.3438 306.021 53.9446 331.942 41.5754C357.61 29.3274 397.227 21.2976 439.462 12.7373L440.41 12.5449C455.449 9.49683 470.813 6.37622 486 2.97046V3.99536C470.866 7.38623 455.569 10.4929 440.609 13.5251L439.785 13.6919L439.777 13.6934C397.446 22.2737 357.927 30.2839 332.373 42.478C306.713 54.7222 288.535 75.9229 271.417 105.703C258.698 127.83 246.587 154.648 232.431 185.998L232.43 186L232.418 186.026C227.546 196.816 222.431 208.143 216.965 220Z" fill="#55CEA7"/>
</svg>
