<svg width="385" height="310" viewBox="0 0 385 310" fill="none" xmlns="http://www.w3.org/2000/svg">
<path fill-rule="evenodd" clip-rule="evenodd" d="M195.475 310C189.025 304.163 164.61 286.959 114.775 261.88C83.0066 245.893 43.5542 235.83 6.36438 226.397L5.52246 226.184C3.67554 225.715 1.83435 225.248 0 224.782V223.75C1.96057 224.249 3.92969 224.748 5.90601 225.249L6.61023 225.428C43.7742 234.854 83.3398 244.941 115.225 260.987C166.153 286.616 190.646 304.072 196.556 309.636L196.213 310H195.475ZM211.49 310H210.753C204.303 304.163 179.888 286.959 130.053 261.88C98.2842 245.893 58.8318 235.83 21.642 226.397L20.8 226.184C13.7612 224.398 6.80481 222.634 0 220.855V219.82C6.92004 221.632 14.005 223.429 21.1836 225.249L21.8878 225.428C59.0518 234.854 98.6174 244.941 130.502 260.987C181.431 286.616 205.924 304.072 211.833 309.636L211.49 310ZM231.133 310H230.396C223.945 304.163 199.531 286.959 149.695 261.88C117.927 245.893 78.4744 235.83 41.2845 226.397L40.4426 226.184C26.4552 222.636 12.7933 219.171 0 215.505V214.464C12.8807 218.162 26.6715 221.659 40.8262 225.249L41.5304 225.428C78.6943 234.854 118.26 244.941 150.145 260.987C201.073 286.616 225.566 304.072 231.476 309.636L231.133 310ZM249.684 310H248.947C242.497 304.163 218.082 286.959 168.247 261.88C136.478 245.893 97.0256 235.83 59.8359 226.397L58.9939 226.184C37.981 220.854 17.7029 215.711 0 209.793V208.739C17.7472 214.691 38.1531 219.866 59.3774 225.249L60.0817 225.428C97.2456 234.854 136.811 244.941 168.696 260.987C219.625 286.616 244.118 304.072 250.027 309.636L249.684 310ZM271.51 310H270.772C264.322 304.163 239.907 286.959 190.072 261.88C158.303 245.893 118.851 235.83 81.6609 226.397L80.8191 226.184C50.5093 218.497 21.7285 211.197 0 201.398V200.301C21.6848 210.154 50.5925 217.486 81.2026 225.249L81.9067 225.428C119.071 234.854 158.636 244.941 190.521 260.987C241.45 286.616 265.943 304.072 271.852 309.636L271.51 310ZM288.969 310H288.232C281.782 304.163 257.367 286.959 207.532 261.88C175.763 245.893 136.311 235.83 99.1211 226.397L98.2791 226.184C61.4471 216.842 26.8729 208.074 4.46777 194.696C2.9491 193.789 1.46033 192.838 0 191.843V190.629C1.62439 191.755 3.28369 192.824 4.98047 193.837C27.2595 207.14 61.7214 215.88 98.6627 225.249L99.3669 225.428C136.531 234.854 176.096 244.941 207.981 260.987C258.91 286.616 283.403 304.072 289.312 309.636L288.969 310ZM307.521 310H306.783C300.333 304.163 275.918 286.959 226.083 261.88C194.315 245.893 154.862 235.83 117.672 226.397L116.83 226.184C79.9985 216.842 45.4243 208.074 23.0192 194.696C14.5031 189.611 6.93054 183.131 0 175.29V173.772C7.07532 181.933 14.8087 188.629 23.5317 193.837C45.8108 207.14 80.2727 215.88 117.214 225.249L117.918 225.428C155.082 234.854 194.648 244.941 226.533 260.987C277.461 286.616 301.954 304.072 307.864 309.636L307.521 310ZM328.255 310H327.517C321.067 304.163 296.652 286.959 246.817 261.88C215.048 245.893 175.596 235.83 138.406 226.397L137.564 226.184C100.732 216.842 66.1581 208.074 43.7529 194.696C25.9696 184.078 12.3014 167.376 0 144.901V142.803C12.483 166.011 26.2679 183.091 44.2656 193.837C66.5447 207.14 101.007 215.88 137.948 225.249L138.652 225.428C175.816 234.854 215.382 244.941 247.266 260.987C298.195 286.616 322.688 304.072 328.597 309.636L328.255 310ZM344.624 310H343.886C337.436 304.163 313.021 286.959 263.186 261.88C231.417 245.893 191.965 235.83 154.775 226.397L153.933 226.184C117.101 216.842 82.527 208.074 60.1218 194.696C37.4913 181.184 21.5249 157.82 6.5592 125.242C4.35803 120.45 2.17749 115.457 0 110.265V107.667C2.47998 113.646 4.96045 119.366 7.4679 124.825C22.4082 157.347 38.2686 180.483 60.6345 193.837C82.9136 207.14 117.375 215.88 154.317 225.249L155.021 225.428C192.185 234.854 231.75 244.941 263.635 260.987C314.564 286.616 339.057 304.072 344.966 309.636L344.624 310ZM359.901 310H359.164C352.714 304.163 328.298 286.959 278.463 261.88C246.695 245.893 207.242 235.83 170.053 226.397L169.211 226.184C132.379 216.842 97.8044 208.074 75.3994 194.696C52.7689 181.184 36.8025 157.82 21.8367 125.242C14.5463 109.372 7.48328 91.2915 0 71.0686V68.182C7.82617 89.4164 15.1619 108.317 22.7455 124.825C37.6858 157.347 53.5461 180.483 75.912 193.837C98.1912 207.14 132.653 215.88 169.594 225.249L170.298 225.428C207.462 234.854 247.028 244.941 278.913 260.987C329.842 286.616 354.334 304.072 360.244 309.636L359.901 310ZM374.087 310H373.35C366.9 304.163 342.485 286.959 292.65 261.88C260.881 245.893 221.429 235.83 184.239 226.397L183.397 226.184C146.565 216.842 111.991 208.074 89.5857 194.696C66.9552 181.184 50.9888 157.82 36.0231 125.242C24.9061 101.043 14.3182 71.7037 1.96265 37.4662L1.94434 37.4154C1.30115 35.6332 0.653076 33.8376 0 32.0289V29.0845C0.983765 31.8074 1.95569 34.5005 2.91675 37.1636C15.2668 71.3857 25.834 100.667 36.9318 124.825C51.8721 157.347 67.7324 180.483 90.0984 193.837C112.377 207.14 146.839 215.88 183.781 225.249L184.485 225.428C221.649 234.854 261.214 244.941 293.099 260.987C344.028 286.616 368.521 304.072 374.43 309.636L374.087 310ZM385 309.319V310H384.263C377.812 304.163 353.397 286.959 303.562 261.88C271.794 245.893 232.341 235.83 195.151 226.397L194.31 226.184C157.478 216.842 122.903 208.074 100.498 194.696C77.8678 181.184 61.9014 157.82 46.9355 125.242C35.8187 101.043 25.2307 71.7034 12.875 37.4658L12.8728 37.4601C8.80127 26.1777 4.53784 14.3634 0 2.02579V0H0.319946C5.09851 12.9707 9.56995 25.3611 13.8293 37.1639C26.1794 71.3859 36.7466 100.667 47.8442 124.825C62.7847 157.347 78.645 180.483 101.011 193.837C123.29 207.14 157.752 215.88 194.693 225.249L195.397 225.428C232.561 234.854 272.127 244.941 304.012 260.987C354.009 286.148 378.529 303.431 385 309.319Z" fill="#55CEA7"/>
</svg>
